<svg xmlns="http://www.w3.org/2000/svg" width="24" height="24" viewBox="0 0 24 24">
    <g fill="none" fill-rule="evenodd">
        <g fill="#767A7C" fill-rule="nonzero">
            <g>
                <g>
                    <path d="M19.67 8.267c-.184-.69-.724-1.236-1.41-1.422C17.008 6.5 12 6.5 12 6.5s-5.008 0-6.26.332c-.673.186-1.226.744-1.41 1.435C4 9.53 4 12.147 4 12.147s0 2.63.33 3.88c.184.69.724 1.236 1.41 1.422 1.265.345 6.26.345 6.26.345s5.008 0 6.26-.332c.686-.186 1.226-.73 1.41-1.422.33-1.262.33-3.88.33-3.88s.013-2.63-.33-3.893zM10.588 14.5V9.794l4.236 2.353-4.236 2.353z" transform="translate(-60.000000, -956.000000) translate(60.000000, 956.000000) translate(0.000000, 0.000000)"/>
                </g>
            </g>
        </g>
    </g>
</svg>
