<svg xmlns="http://www.w3.org/2000/svg" width="24" height="24" viewBox="0 0 24 24">
    <g fill="none" fill-rule="evenodd">
        <g fill="#767A7C" fill-rule="nonzero">
            <g>
                <g>
                    <g>
                        <path d="M11.421 0C12.845 0 14 1.155 14 2.579v10.747c0 .294-.116.575-.324.782-.395.395-1.021.432-1.477.077l-.086-.077-1.581-1.582H2.579c-1.377 0-2.502-1.079-2.575-2.437L0 9.947V2.58C0 1.155 1.155 0 2.579 0zm-.546 1.169H2.83c-.926 0-1.676.75-1.676 1.675v6.704c0 .926.75 1.676 1.676 1.676h8.25c.98.992 1.47 1.458 1.47 1.399V2.844c0-.925-.75-1.675-1.675-1.675zM7 8.105c.407 0 .737.33.737.737s-.33.737-.737.737-.737-.33-.737-.737.33-.737.737-.737zm.34-5.158c.792 0 1.44.613 1.498 1.39l.004.112v.345c0 .586-.337 1.115-.858 1.367l-.115.05c-.271.104-.46.349-.495.632l-.006.096V7c0 .203-.165.368-.368.368-.18 0-.331-.13-.362-.302L6.632 7v-.06c0-.587.337-1.117.858-1.368l.115-.05c.271-.104.46-.35.494-.633l.006-.095v-.345c0-.394-.298-.719-.682-.76l-.083-.005h-.397c-.579 0-1.048.47-1.048 1.049 0 .203-.165.368-.369.368-.203 0-.368-.165-.368-.368 0-.947.737-1.721 1.668-1.782l.117-.004h.397z" transform="translate(-423.000000, -956.000000) translate(60.000000, 956.000000) translate(363.000000, 0.000000) translate(5.250000, 5.000000)"/>
                    </g>
                </g>
            </g>
        </g>
    </g>
</svg>
