<svg xmlns="http://www.w3.org/2000/svg" width="95" height="132" viewBox="0 0 95 132">
    <defs>
        <linearGradient id="1z9nvfj6ca" x1="4.448%" x2="97.288%" y1="34.926%" y2="65.55%">
            <stop offset="0%" stop-color="#4067FF"/>
            <stop offset="31.648%" stop-color="#34C1FF"/>
            <stop offset="70.078%" stop-color="#57E7FF"/>
            <stop offset="100%" stop-color="#75FDAC"/>
            <stop offset="100%" stop-color="#78FFA4"/>
            <stop offset="100%" stop-color="#78FFA4"/>
        </linearGradient>
    </defs>
    <g fill="none" fill-rule="evenodd">
        <g>
            <g>
                <g>
                    <g fill="url(#1z9nvfj6ca)" fill-rule="nonzero" transform="translate(-690.000000, -288.000000) translate(307.000000, 288.000000) translate(383.000000, 0.000000) translate(0.000000, 21.000000)">
                        <path d="M74.72 0C85.92 0 95 8.954 95 20s-9.08 20-20.28 20c-5.114 0-9.786-1.867-13.354-4.948L40.535 19.015c.016.326-12.814-12.304-20.256-12.304-7.441 0-13.474 5.95-13.474 13.289 0 7.34 6.033 13.289 13.474 13.289 1.933 0 3.77-.402 5.432-1.124 1.067-.464 3.625-.365 4.316 1.678.69 2.043-.052 3.854-2.026 4.656-2.38.967-4.988 1.501-7.722 1.501C9.08 40 0 31.046 0 20S9.08 0 20.28 0c4.665 0 8.963 1.554 12.39 4.165v-.002c9.907 7.47 19.207 14.486 19.816 14.945.61.459 1.986.632 1.986-.202C55.047 8.37 63.892 0 74.72 0zM30.657 19.906l.07.05 19.62 14.404c1.434 1.053 1.71 3.026.613 4.405-1.079 1.357-3.083 1.634-4.514.64l-.07-.05L26.756 24.95c-1.435-1.054-1.71-3.026-.613-4.406 1.078-1.357 3.082-1.634 4.513-.64zM74.721 6.71c-7.442 0-13.475 5.95-13.475 13.289 0 7.34 6.033 13.289 13.475 13.289 7.441 0 13.474-5.95 13.474-13.289 0-7.34-6.033-13.289-13.474-13.289z"/>
                    </g>
                    <g fill="#FFF" fill-rule="nonzero">
                        <path d="M44.271 24.419l7.02 4.04c.902.52 1.457 1.478 1.457 2.515v8.081c0 1.038-.555 1.997-1.456 2.515l-7.02 4.04c-.902.52-2.012.52-2.914 0l-7.02-4.04c-.9-.518-1.456-1.477-1.456-2.515v-8.08c0-1.038.555-1.997 1.456-2.516l7.02-4.04c.902-.519 2.012-.519 2.913 0zm-35.867.297l.359.006c1.056.033 1.943.216 2.661.55.798.369 1.434.824 1.909 1.364.475.54.812 1.124 1.011 1.75.2.625.3 1.185.3 1.678 0 .626-.095 1.175-.285 1.65-.19.474-.413.872-.67 1.194-.256.323-.513.578-.77.768-.153.114-.281.207-.384.28l-.17.118.266.193c.612.465 1.154 1.05 1.628 1.756.541.806.812 1.749.812 2.83 0 .72-.133 1.422-.399 2.105-.266.682-.66 1.299-1.182 1.848-.523.55-1.178.991-1.966 1.323-.788.332-1.695.498-2.72.498H.768l-.122-.01c-.158-.024-.298-.096-.42-.218-.151-.151-.227-.332-.227-.54V25.484l.01-.121c.023-.158.096-.298.218-.419.152-.152.332-.228.541-.228h7.635zm64.349 0l.152.006c.293.023.51.116.653.279.167.19.287.332.361.427l4.944 6.94 4.832-6.912.05-.063c.074-.093.178-.219.311-.378.167-.199.435-.299.806-.299h1.194l.097.008c.126.02.237.079.333.177.12.124.18.27.18.441 0 .095-.027.2-.083.313L80.39 34.53l6.527 9.16.032.07c.019.045.03.083.037.114.01.048.014.09.014.128 0 .17-.06.318-.18.441s-.264.185-.431.185h-1.305l-.152-.005c-.29-.02-.499-.099-.626-.237-.148-.161-.268-.299-.36-.412l-5.222-7.339-5.221 7.339-.075.09c-.08.094-.175.201-.286.322-.148.161-.407.242-.778.242H71.17l-.097-.008c-.126-.02-.237-.078-.333-.177-.12-.123-.18-.27-.18-.44 0-.039.004-.081.013-.129.01-.047.032-.109.07-.185l6.554-9.215-6.277-8.818-.046-.11c-.025-.072-.037-.14-.037-.203 0-.17.06-.317.18-.44.12-.124.264-.186.43-.186h1.306zm-30.11 1.654l-.11.048-7.02 4.04c-.15.087-.254.238-.285.41l-.009.106v8.081c0 .18.08.346.21.457l.085.06 7.02 4.04c.14.08.304.096.453.048l.11-.048 7.02-4.04c.15-.087.254-.238.285-.41l.009-.107v-8.08c0-.18-.08-.346-.21-.457l-.085-.06-7.02-4.04c-.14-.08-.304-.097-.454-.048zM8.517 35.582H2.706v6.485h5.812c.627 0 1.183-.085 1.667-.256.484-.17.888-.408 1.21-.711.324-.304.566-.645.727-1.024.162-.38.242-.787.242-1.223 0-.417-.076-.825-.228-1.223-.151-.398-.384-.75-.698-1.053-.313-.303-.712-.545-1.196-.725-.484-.18-1.059-.27-1.724-.27zm-.399-8.306H2.706v5.746H8.12c1.273 0 2.227-.247 2.864-.74.636-.493.954-1.204.954-2.133s-.318-1.64-.954-2.133c-.637-.493-1.591-.74-2.864-.74zM3.995 0c.617 0 1.162.097 1.632.29.471.193.871.43 1.2.71.33.279.58.58.752.9.172.32.263.607.274.862.01.091-.02.17-.092.236-.07.066-.151.1-.243.1h-.622l-.104-.008c-.064-.009-.118-.027-.162-.054-.066-.04-.134-.132-.205-.274-.05-.102-.134-.232-.25-.39-.117-.157-.274-.31-.472-.457-.197-.148-.438-.275-.721-.382-.284-.106-.613-.16-.987-.16-.284 0-.555.033-.813.1-.258.065-.489.165-.691.297-.203.132-.365.297-.486.496-.122.198-.182.43-.182.694 0 .264.058.488.174.671.117.183.304.349.562.496.259.148.585.282.98.404.395.122.876.26 1.443.412.577.153 1.066.32 1.466.504.4.183.726.389.98.618.252.229.437.493.554.793.116.3.174.638.174 1.015 0 .457-.098.877-.296 1.258-.197.382-.473.71-.828.984-.354.275-.782.489-1.283.641-.501.153-1.06.23-1.678.23-.588 0-1.13-.087-1.626-.26-.496-.173-.921-.397-1.275-.672-.355-.274-.636-.58-.843-.915C.119 8.803.01 8.473 0 8.147c0-.091.033-.17.099-.236.066-.066.144-.1.235-.1h.623l.097.007c.062.01.118.028.169.055.076.04.144.132.205.274.06.143.154.298.28.466.127.167.297.325.51.473.212.147.47.272.774.373.304.102.663.153 1.079.153.354 0 .69-.04 1.01-.122.319-.081.6-.198.843-.351.243-.153.435-.336.577-.55.142-.213.212-.452.212-.716 0-.265-.08-.491-.243-.68-.162-.187-.394-.358-.698-.51-.304-.153-.676-.293-1.117-.42-.44-.127-.939-.262-1.496-.404-.506-.133-.936-.293-1.29-.48-.355-.19-.644-.405-.867-.65C.78 4.487.62 4.217.524 3.922.428 3.626.38 3.306.38 2.96c0-.376.076-.743.228-1.099.151-.356.377-.671.675-.946.3-.274.674-.495 1.124-.663C2.858.084 3.387 0 3.995 0zM35.67 0c.689 0 1.294.102 1.815.305.522.204.957.455 1.307.755.349.3.612.62.79.962.177.34.27.648.28.923.01.091-.02.17-.09.236-.072.066-.153.1-.244.1h-.622l-.114-.005c-.176-.016-.285-.07-.327-.164-.121-.244-.26-.473-.418-.686-.157-.214-.341-.397-.554-.55-.213-.152-.468-.274-.767-.366-.299-.091-.65-.137-1.056-.137-.415 0-.797.059-1.146.176-.35.117-.651.292-.904.526-.253.234-.456.526-.608.877-.152.351-.233.76-.243 1.228-.02.458-.03.88-.03 1.267 0 .386.01.808.03 1.266.01.488.091.916.243 1.282s.355.668.608.907c.253.24.554.418.904.534.349.117.731.176 1.146.176.405 0 .785-.05 1.14-.153.354-.101.663-.267.926-.495.263-.23.468-.527.615-.893.147-.366.22-.814.22-1.343v-.427h-2.187l-.08-.007c-.078-.016-.148-.054-.208-.115-.081-.081-.122-.178-.122-.29V5.34l.008-.081c.015-.078.053-.148.114-.209.08-.081.177-.122.288-.122h3.22l.08.008c.079.015.148.053.209.114.08.081.121.178.121.29v1.45l-.008.3c-.026.496-.12.957-.28 1.385-.193.514-.474.956-.843 1.328-.37.37-.825.66-1.367.87-.542.208-1.157.312-1.846.312-.729 0-1.362-.11-1.898-.328-.537-.219-.982-.516-1.337-.892-.354-.377-.623-.82-.805-1.328-.182-.508-.283-1.058-.304-1.648-.03-.895-.03-1.79 0-2.685.02-.56.12-1.088.297-1.587.177-.498.445-.935.805-1.312.359-.376.807-.671 1.344-.885.536-.213 1.17-.32 1.898-.32zM13.485.153l.081.007c.078.015.147.054.208.115.08.081.121.178.121.29v9.856l-.007.08c-.015.079-.053.148-.114.21-.081.08-.177.122-.289.122h-.622l-.081-.008c-.078-.015-.147-.054-.208-.115-.081-.08-.122-.178-.122-.29V.566l.008-.082c.015-.078.053-.147.114-.208.081-.082.177-.122.289-.122h.622zm6.301 0l.083.005c.106.016.197.062.274.14.096.096.18.2.25.312l4.937 7.461V.565l.008-.082c.015-.078.053-.147.114-.208.08-.082.177-.122.288-.122h.623l.08.007c.079.015.148.054.209.115.08.081.121.178.121.29v9.856l-.007.08c-.016.079-.054.148-.114.21-.081.08-.178.122-.289.122h-.532l-.082-.006c-.106-.016-.198-.062-.275-.14-.096-.096-.18-.2-.25-.312l-4.937-7.46v7.506l-.007.08c-.015.079-.053.148-.114.21-.081.08-.177.122-.289.122h-.622l-.081-.008c-.078-.015-.147-.054-.208-.115-.08-.08-.121-.178-.121-.29V.566l.007-.082c.015-.078.053-.147.114-.208.081-.082.177-.122.289-.122h.531zm28.9 0l.294.007c.388.02.758.082 1.11.183.441.127.829.323 1.163.588.334.264.6.6.797 1.007.198.406.296.89.296 1.45 0 .558-.098 1.044-.296 1.456-.197.412-.463.755-.797 1.03s-.722.478-1.162.61c-.44.132-.909.199-1.405.199H45.89v3.738l-.008.08c-.015.079-.053.148-.113.21-.081.08-.178.122-.289.122h-.623l-.08-.008c-.078-.015-.148-.054-.208-.115-.081-.08-.122-.178-.122-.29V.566l.008-.082c.015-.078.053-.147.114-.208.08-.082.177-.122.288-.122h3.828zm8.852 0l.081.007c.078.015.147.054.208.115.081.081.122.178.122.29v8.894h5.149l.08.008c.078.015.147.053.208.114.081.082.122.178.122.29v.55l-.008.08c-.015.079-.053.148-.114.21-.08.08-.177.122-.288.122h-6.182l-.08-.008c-.079-.015-.148-.054-.209-.115-.08-.08-.121-.178-.121-.29V.566l.007-.082c.015-.078.053-.147.114-.208.081-.082.177-.122.289-.122h.622zm14.215 0l.115.006c.146.018.26.072.34.161.102.112.178.224.228.336l3.706 9.627.034.085c.018.052.027.095.027.129 0 .091-.033.17-.099.236-.065.066-.144.1-.235.1h-.562l-.114-.006c-.143-.014-.246-.055-.311-.124-.081-.087-.137-.17-.167-.252l-.79-2.03h-5.27l-.79 2.03-.04.082c-.03.056-.074.112-.128.17-.08.086-.222.13-.425.13h-.562l-.066-.007c-.063-.012-.12-.043-.17-.093-.065-.066-.098-.145-.098-.236 0-.051.02-.122.06-.214L70.159.656l.06-.112c.044-.074.1-.149.168-.224.101-.111.253-.167.456-.167h.91zm7.38 0l.114.004c.143.013.25.053.318.118.086.081.155.167.205.259l2.795 4.852 2.81-4.852.056-.09c.042-.059.091-.115.149-.17.086-.08.23-.121.433-.121h.653l.066.006c.063.012.12.043.17.093.065.066.098.145.098.236 0 .051-.025.122-.076.214l-3.63 6.148v3.57l-.008.082c-.015.078-.053.147-.114.208-.08.082-.177.123-.288.123h-.623l-.08-.008c-.078-.015-.148-.054-.208-.115-.081-.08-.122-.178-.122-.29V6.85L78.221.702l-.033-.065c-.029-.061-.043-.11-.043-.149 0-.091.033-.17.099-.236.066-.066.144-.1.235-.1h.653zm-7.836 1.449l-2.111 5.447h4.207l-2.096-5.447zM48.61 1.526H45.89v3.783h2.719c.729 0 1.293-.157 1.693-.473.4-.315.6-.798.6-1.449 0-.65-.2-1.124-.6-1.419-.4-.295-.964-.442-1.693-.442z" transform="translate(-690.000000, -288.000000) translate(307.000000, 288.000000) translate(383.000000, 0.000000) translate(4.000000, 86.000000)"/>
                    </g>
                    <g>
                        <path stroke="#979797" d="M29 .5c1.519 0 2.894.616 3.89 1.61.994.996 1.61 2.371 1.61 3.89 0 1.519-.616 2.894-1.61 3.89-.996.994-2.371 1.61-3.89 1.61h0H6c-1.519 0-2.894-.616-3.89-1.61C1.117 8.893.5 7.518.5 6c0-1.519.616-2.894 1.61-3.89C3.107 1.117 4.482.5 6 .5h0z" transform="translate(-690.000000, -288.000000) translate(307.000000, 288.000000) translate(383.000000, 0.000000) translate(60.000000, 0.000000)"/>
                        <path fill="#999" fill-rule="nonzero" d="M9.33 9.3c.384 0 .708-.056.972-.167.264-.11.479-.257.643-.44.165-.184.284-.392.356-.626.072-.234.108-.474.108-.72 0-.3-.046-.557-.14-.77-.092-.213-.256-.4-.49-.562.036-.03.082-.074.14-.13.056-.058.112-.132.166-.225.054-.094.1-.205.14-.333.039-.13.058-.281.058-.455 0-.222-.036-.446-.108-.67-.072-.225-.19-.426-.356-.603-.165-.178-.385-.322-.661-.433C9.882 3.057 9.543 3 9.141 3H6.243c-.066 0-.123.024-.171.072-.048.048-.072.105-.072.171v5.814c0 .066.024.123.072.171.048.048.105.072.171.072H9.33zm-.27-3.879H7.665V4.395H9.06c.18 0 .316.046.41.14.092.093.139.217.139.373s-.046.28-.14.373c-.092.094-.229.14-.409.14zm.09 2.484H7.665V6.807H9.15c.18 0 .324.052.432.157.108.105.162.236.162.392 0 .156-.054.287-.162.391-.108.106-.252.158-.432.158zM16.917 9.3c.066 0 .123-.024.171-.072.048-.048.072-.105.072-.171v-.954c0-.066-.024-.123-.072-.171-.048-.048-.105-.072-.171-.072h-2.844V6.852h2.574c.066 0 .123-.024.171-.072.048-.048.072-.105.072-.171v-.954c0-.066-.024-.123-.072-.171-.048-.048-.105-.072-.171-.072h-2.574V4.44h2.772c.066 0 .123-.024.171-.072.048-.048.072-.105.072-.171v-.954c0-.066-.024-.123-.072-.171-.048-.048-.105-.072-.171-.072h-4.194c-.066 0-.123.024-.171.072-.048.048-.072.105-.072.171v5.814c0 .066.024.123.072.171.048.048.105.072.171.072h4.266zm4.077 0c.066 0 .123-.024.171-.072.048-.048.072-.105.072-.171V4.44h1.584c.066 0 .123-.024.171-.072.048-.048.072-.105.072-.171v-.954c0-.066-.024-.123-.072-.171-.048-.048-.105-.072-.171-.072h-4.833c-.066 0-.123.024-.171.072-.048.048-.072.105-.072.171v.954c0 .066.024.123.072.171.048.048.105.072.171.072h1.584v4.617c0 .066.024.123.072.171.048.048.105.072.171.072h1.179zm3.681 0c.12 0 .206-.026.256-.077.052-.05.083-.1.095-.148l.252-.747h2.394l.252.747c.012.048.044.098.095.149.05.05.136.076.256.076h1.134c.054 0 .1-.02.14-.059.038-.038.058-.085.058-.139 0-.03-.012-.075-.036-.135l-1.962-5.67c-.024-.066-.068-.132-.13-.198-.063-.066-.155-.099-.275-.099h-1.458c-.12 0-.211.033-.274.099-.064.066-.107.132-.131.198l-1.962 5.67c-.024.06-.036.105-.036.135 0 .054.02.1.058.14.04.038.086.058.14.058h1.134zm2.529-2.367h-1.458l.729-2.16.729 2.16z" transform="translate(-690.000000, -288.000000) translate(307.000000, 288.000000) translate(383.000000, 0.000000) translate(60.000000, 0.000000)"/>
                    </g>
                </g>
            </g>
        </g>
    </g>
</svg>
