<?xml version="1.0" encoding="UTF-8"?>
<svg width="120px" height="84px" viewBox="0 0 120 84" version="1.1" xmlns="http://www.w3.org/2000/svg" xmlns:xlink="http://www.w3.org/1999/xlink">
    <title>sub_logo</title>
    <defs>
        <linearGradient x1="4.44847951%" y1="34.9264835%" x2="97.2881696%" y2="65.5495804%" id="linearGradient-1">
            <stop stop-color="#4067FF" offset="0%"></stop>
            <stop stop-color="#34C1FF" offset="31.6483918%"></stop>
            <stop stop-color="#57E7FF" offset="70.0784477%"></stop>
            <stop stop-color="#75FDAC" offset="100%"></stop>
            <stop stop-color="#78FFA4" offset="100%"></stop>
            <stop stop-color="#78FFA4" offset="100%"></stop>
        </linearGradient>
    </defs>
    <g id="Web" stroke="none" stroke-width="1" fill="none" fill-rule="evenodd">
        <g id="index-desktop" transform="translate(-660.000000, -309.000000)" fill-rule="nonzero">
            <g id="content" transform="translate(307.000000, 309.000000)">
                <g id="Group" transform="translate(353.000000, 0.000000)">
                    <g transform="translate(12.000000, -0.000000)" fill="url(#linearGradient-1)" id="logo">
                        <path d="M74.7206304,-1.25959849e-13 C85.920617,-1.25959849e-13 95,8.954305 95,20 C95,31.045695 85.920617,40 74.7206304,40 C69.6060131,40 64.9336284,38.132661 61.366181,35.0515582 L40.5345781,19.0150743 C40.5506235,19.3413912 27.7209714,6.7114094 20.2793696,6.7114094 C12.8377678,6.7114094 6.80515759,12.6609141 6.80515759,20 C6.80515759,27.3390859 12.8377678,33.2885906 20.2793696,33.2885906 C22.2119535,33.2885906 24.0495091,32.8873317 25.711053,32.1646821 C26.7776036,31.7008108 29.335798,31.7996407 30.0267701,33.8427773 C30.7177422,35.8859138 29.9752565,37.6967564 28.0009187,38.4991648 C25.6209052,39.4664476 23.0133167,40 20.2793696,40 C9.07938305,40 0,31.045695 0,20 C0,8.954305 9.07938305,-1.25959849e-13 20.2793696,-1.25959849e-13 C24.9449768,-1.25959849e-13 29.24259,1.55386479 32.6691661,4.16548135 C32.6697651,4.16548135 32.6700646,4.16459958 32.6700646,4.16283603 C42.5769363,11.6328889 51.8767224,18.6492284 52.4860029,19.1079195 C53.0952833,19.5666105 54.4718637,19.7399801 54.4718637,18.9061276 C55.0471549,8.36896021 63.892903,-1.25959849e-13 74.7206304,-1.25959849e-13 Z M30.6561068,19.905839 L30.7260221,19.9557928 L50.3453313,34.3597546 C51.7804336,35.4133676 52.0551206,37.3856132 50.9588619,38.7648885 C49.8802847,40.1219173 47.8764768,40.3993588 46.4453425,39.4045059 L46.3754271,39.3545521 L26.756118,24.9505902 C25.3210157,23.8969772 25.0463286,21.9247316 26.1425874,20.5454564 C27.2211645,19.1884275 29.2249725,18.910986 30.6561068,19.905839 Z M74.7206304,6.7114094 C67.2790286,6.7114094 61.2464183,12.6609141 61.2464183,20 C61.2464183,27.3390859 67.2790286,33.2885906 74.7206304,33.2885906 C82.1622322,33.2885906 88.1948424,27.3390859 88.1948424,20 C88.1948424,12.6609141 82.1622322,6.7114094 74.7206304,6.7114094 Z" id="Combined-Shape"></path>
                    </g>
                    <g transform="translate(-0.000000, 65.000000)" fill="#FFFFFF" id="Combined-Shape">
                        <path d="M66.7967392,2.27748777 L66.9528433,2.36100451 L73.2509464,5.99721601 L73.4044659,6.09286852 C73.7543793,6.3275697 74.0450423,6.64168132 74.2521055,7.01055787 C74.9505415,8.25479933 74.5537148,9.81642619 73.3741582,10.5830442 L73.2226595,10.6746503 L70.022975,12.4707445 L69.9216534,12.5206547 C69.4419147,12.7255032 68.874876,12.540065 68.6137087,12.0748038 C68.3538739,11.6119163 68.4881633,11.0348195 68.9077955,10.7306975 L69.0096495,10.6655374 L72.209334,8.86944321 L72.2800456,8.8232487 C72.5242528,8.63900683 72.6008006,8.29805521 72.4468984,8.02388342 C72.4059409,7.95091882 72.3508094,7.88723934 72.2850426,7.83642654 L72.2158617,7.7900353 L65.9177586,4.15382379 L65.8419414,4.11659723 C65.5588566,4.00064385 65.2265943,4.10885381 65.0693874,4.38114417 C65.0330484,4.44408527 65.0081814,4.51266411 64.9956411,4.58369127 L64.9861824,4.69166958 L64.9861824,17.2351122 C64.9861824,17.8067737 64.5227592,18.2701969 63.9510977,18.2701969 C63.4151651,18.2701969 62.9743637,17.8628913 62.921357,17.3409436 L62.916013,17.2351122 L62.916013,4.69166958 L62.9218176,4.51499788 C62.9488485,4.10409936 63.0698897,3.704037 63.2765682,3.34605947 C63.9900017,2.11035633 65.535423,1.65448036 66.7967392,2.27748777 Z M99.6540251,2.31828929 L99.732824,2.31105161 C100.083809,2.29428519 100.424226,2.47889206 100.603385,2.80064388 L100.656925,2.91288582 L106.206369,16.6993394 L106.240675,16.7995634 C106.374398,17.2705371 106.142355,17.7787354 105.688912,17.9697315 C105.237782,18.1597531 104.726136,17.9689834 104.495176,17.5428514 L104.447015,17.4404015 L103.165191,14.2579999 L96.141191,14.2579999 L94.860451,17.4404015 C94.6604024,17.937381 94.1043862,18.1743701 93.618554,17.9697315 C93.1651106,17.7787354 92.9330678,17.2705371 93.0667909,16.7995634 L93.101097,16.6993394 L98.6505408,2.91288582 C98.8183713,2.49594544 99.2367443,2.26199542 99.6540251,2.31828929 Z M37.6603419,2.26017704 C38.2613725,2.26017704 38.7580873,2.71956682 38.8366993,3.31559397 L38.847537,3.48129205 L38.8475352,16.7521669 C38.8469439,17.0925365 38.7002479,17.4270854 38.4270887,17.6576068 L38.3187643,17.7389842 L38.229,17.791 L38.243,17.784 L38.226785,17.7946744 C38.2199604,17.7986183 38.2138423,17.8019643 38.2076926,17.8052565 L38.2151167,17.7995053 L38.192799,17.8123516 C38.0327514,17.8958624 37.8518416,17.9424988 37.6603419,17.9424988 C37.4589284,17.9424988 37.2692297,17.8909088 37.1030547,17.7998752 C37.0951854,17.7955797 37.0872239,17.7912416 37.0793075,17.7868093 L37.0500789,17.769032 C36.9513103,17.7108026 36.8602693,17.6368091 36.7804778,17.5485489 L36.6724559,17.4097205 L29.8440943,7.33017704 L29.8444846,16.7173814 C29.8444846,17.3917846 29.3129592,17.9384965 28.6572894,17.9384965 C28.0562588,17.9384965 27.5595439,17.4791067 27.480932,16.8830795 L27.4700943,16.7173814 L27.4701045,3.46817829 C27.468506,3.08284459 27.6542535,2.70410544 27.998867,2.47436173 C28.4948112,2.14373025 29.1490519,2.23550455 29.5371535,2.66479702 L29.6451754,2.80362542 L36.4730943,12.883177 L36.4731467,3.48129205 C36.4731467,2.80688885 37.0046721,2.26017704 37.6603419,2.26017704 Z M19.5294706,2.26017705 C20.1451147,2.26017704 20.6513256,2.72792176 20.7121978,3.32732019 L20.7183348,3.44890207 L20.7178156,16.7513013 C20.71779,17.4069786 20.1862514,17.9384965 19.5305741,17.9384965 C18.8748744,17.9384965 18.343296,17.4070011 18.3431936,16.7513013 L18.3411167,3.44890206 C18.3410143,2.79248985 18.8730584,2.26027954 19.5294706,2.26017705 Z M50.5805908,2.26384878 C51.6149564,2.26384878 52.5109211,2.4089504 53.2684846,2.69915366 C54.0260482,2.98935692 54.6488529,3.35573853 55.1368987,3.7982985 C55.6249444,4.24085847 55.9891577,4.70155614 56.2295384,5.18039152 C56.3411312,5.40268277 56.4283912,5.61246554 56.4913186,5.80973982 C56.5455964,5.93971099 56.5756598,6.08299619 56.5756598,6.23330306 C56.5756598,6.8425014 56.081807,7.33635423 55.4726087,7.33635423 C55.0343075,7.33635423 54.6557139,7.08071631 54.4777941,6.71040695 C54.4376171,6.65499879 54.398617,6.57966201 54.3611244,6.48630618 C54.2300076,6.10904195 54.0151218,5.73903279 53.7164669,5.37627872 C53.4178121,5.01352465 53.0171775,4.71243877 52.5145632,4.47302108 C52.0119489,4.23360339 51.3672914,4.11389455 50.5805908,4.11389455 C49.4296769,4.11389455 48.5009331,4.42586305 47.7943593,5.04980005 C47.0877856,5.67373706 46.7053617,6.70395862 46.6470876,8.14046475 C46.603382,9.43186925 46.603382,10.7232738 46.6470876,12.0146782 C46.7053617,13.4656945 47.0914277,14.5067987 47.8052857,15.1379908 C48.5191437,15.7691829 49.4515297,16.0847789 50.6024436,16.0847789 C51.3745757,16.0847789 52.0629387,15.9433049 52.6675328,15.6603567 C53.2721268,15.3774085 53.7492461,14.9384761 54.0988909,14.3435594 C54.40483,13.8230073 54.5769208,13.1802524 54.6151632,12.4152948 L54.623358,12.079974 L54.623358,11.1658337 L51.7189552,11.1648488 L51.7031196,11.1659765 C51.2217647,11.1659765 50.8315495,10.7757613 50.8315495,10.2944064 C50.8315495,9.81305146 51.2217647,9.42283621 51.7031196,9.42283621 L51.7345777,9.42339336 L56.2841704,9.42461417 L56.3975318,9.4334563 C56.5040642,9.45114056 56.5901096,9.49535121 56.655668,9.56608826 C56.7212263,9.6368253 56.7622003,9.72592677 56.7785899,9.83339267 L56.7867847,9.94698003 L56.7867847,12.0364435 L56.7753462,12.4754893 C56.7219662,13.4832654 56.4817561,14.3743935 56.0547161,15.1488734 C55.5666703,16.0339934 54.8564545,16.7195986 53.9240685,17.205689 C52.9916826,17.6917795 51.87719,17.9348247 50.5805908,17.9348247 C49.2985601,17.9348247 48.2095624,17.695407 47.3135978,17.2165717 C46.4176332,16.7377363 45.7329123,16.0630137 45.259435,15.1924039 C44.7859578,14.3217942 44.5200821,13.2988277 44.461808,12.1235045 C44.4520956,11.697873 44.4456207,11.2545069 44.4423833,10.7934062 L44.4399552,10.0884541 C44.4399552,9.37020106 44.4472395,8.68459586 44.461808,8.03163853 C44.5200821,6.85631534 44.7859578,5.84060393 45.259435,4.98450432 C45.7329123,4.12840471 46.4212753,3.46093721 47.3245242,2.98210184 C48.2277731,2.50326646 49.3131286,2.26384878 50.5805908,2.26384878 Z M80.2237496,2.2565053 C80.8211189,2.2565053 81.3053823,2.74076875 81.3053823,3.33813799 C81.3053823,3.37796261 81.30323,3.41728453 81.2990355,3.45599379 L81.2987572,16.0424951 L88.1828743,16.0424951 C88.700402,16.0478898 89.1185554,16.4694146 89.1185554,16.9886043 C89.1185554,17.5111874 88.6949181,17.9348247 88.1723349,17.9348247 C88.1511491,17.9348247 88.130126,17.9341285 88.109287,17.9327576 L80.3437146,17.9348247 L80.3347685,17.9348247 C79.719286,17.9348247 79.2130553,17.4670617 79.1521807,16.8676399 L79.15,16.835 L79.1502803,16.8470424 L79.1442803,16.8424828 L79.1451169,3.3965053 L79.1421169,3.33813799 C79.1421169,3.31822568 79.142655,3.29843905 79.1437174,3.27879183 L79.1460337,3.24604241 C79.192764,2.69173555 79.6574301,2.2565053 80.2237496,2.2565053 Z M8.47014379,9.80346811 C8.76982251,9.91391131 8.80516881,9.92843296 8.96413497,9.99452939 L9.19770447,10.095665 C10.8683451,10.823893 11.8107577,11.7663056 11.7253358,13.9308613 C11.4680622,16.8424828 8.79075344,17.9348247 5.72791247,17.9348247 C3.95017953,17.9348247 2.53656056,17.5064553 1.44421864,16.6925535 C0.908756907,16.2856026 0.501805993,15.8143963 0.201947425,15.2360976 L0.0921366862,14.9760325 C0.0326499841,14.8416628 -8.52651283e-14,14.6929039 -8.52651283e-14,14.5365192 C-8.52651283e-14,13.9293017 0.492247053,13.4370546 1.09946457,13.4370546 C1.53318025,13.4370546 1.90824054,13.6881882 2.08716454,14.0529745 L2.13248726,14.1563518 L2.16202055,14.2277107 L2.27953893,14.4650327 C2.38663128,14.6363805 2.47230515,14.7648913 2.62223444,14.936239 C2.76910394,15.0953477 2.86701694,15.1845184 2.97192373,15.2636981 L3.24337004,15.4502823 C3.84920674,15.8174561 4.26621122,15.9485895 5.02041609,16.032515 L5.4280539,16.0714179 L6.06065588,16.0712071 C6.81992656,16.0632221 7.54236278,15.999513 8.38380264,15.5787931 C8.98351978,15.2146791 9.43330763,14.7648913 9.5189815,13.8653156 C9.56181844,13.201343 9.41188916,12.7729737 9.02635671,12.3874412 C8.60750665,12.0066684 8.15481012,11.795128 7.57800986,11.5723054 C7.52896415,11.558258 7.41677838,11.51629 7.24145254,11.4464013 C6.97846377,11.3415682 6.89686011,10.7360004 7.24145254,10.1951898 C7.58604496,9.65437928 8.17046507,9.69302491 8.47014379,9.80346811 Z M119.013338,2.30668571 C119.558256,2.30668571 120,2.74024891 120,3.27507621 C120,3.47331516 119.939309,3.65764156 119.83517,3.81113328 L115.059636,11.8802274 L115.059689,16.8041409 C115.060965,16.8252734 115.061612,16.8465721 115.061612,16.8680191 C115.061612,17.4551717 114.57665,17.931153 113.978419,17.931153 C113.380188,17.931153 112.895226,17.4551717 112.895226,16.8680191 C112.895226,16.8464853 112.895878,16.8251011 112.897164,16.8038844 L112.897201,11.8802274 L108.108462,3.82292497 C108.003623,3.66909883 107.942488,3.48415003 107.942488,3.28518684 C107.942488,2.75035953 108.384232,2.31679634 108.92915,2.31679634 C109.289285,2.31679634 109.604355,2.50617018 109.776625,2.78899314 L113.967497,9.70935625 L118.157928,2.78952776 L118.15908,2.7901917 C118.329779,2.50111926 118.648424,2.30668571 119.013338,2.30668571 Z M99.653191,5.53099994 L96.807191,12.6019999 L102.499191,12.6019999 L99.653191,5.53099994 Z M5.77389717,2.2565053 C7.01219946,2.2565053 8.25050175,2.51448494 9.35040555,3.2064774 C10.0878391,3.70813834 10.6776734,4.33537186 11.0068167,5.12959746 L11.0116578,5.14491481 C11.0582822,5.26673808 11.083826,5.39899058 11.083826,5.53720915 C11.083826,6.14350725 10.5923243,6.63500897 9.98602617,6.63500897 C9.55283307,6.63500897 9.17824283,6.38410029 8.99965578,6.01968324 L8.95516367,5.91562277 C8.75215642,5.29952995 8.26169542,4.8421783 7.77123442,4.56969997 C7.21435422,4.2698414 6.6060697,4.11991212 5.77389717,4.11395874 C4.54989666,4.09849365 3.24337004,4.41977068 2.72932678,5.31934639 C2.53656056,5.68346036 2.47230515,6.02615587 2.49372362,6.54019913 C2.56077274,7.46212454 3.15255412,7.93802754 3.96144247,8.31514824 L4.23869093,8.43767286 L4.67917886,8.61399177 C4.81700075,8.66554346 4.96060538,8.71589929 5.1087926,8.76542332 C5.29519445,8.8406533 5.52916441,9.32385228 5.19903721,9.92431669 C4.86891,10.5247811 4.12932167,10.4708647 3.89274653,10.3939271 C3.81107557,10.3673666 3.72634199,10.3372556 3.63854578,10.3035941 C3.51493528,10.2582587 3.39316523,10.2119888 3.27352648,10.1644745 L2.92129496,10.0178881 C1.48272861,9.38897353 0.422622562,8.51718874 0.309039771,6.79722076 C0.244784364,5.70487883 0.437550586,5.04090629 0.872283923,4.37193838 C1.91542496,2.8133855 3.71457637,2.2565053 5.77389717,2.2565053 Z"></path>
                    </g>
                </g>
            </g>
        </g>
    </g>
</svg>